<svg xmlns="http://www.w3.org/2000/svg" xmlns:xlink="http://www.w3.org/1999/xlink" width="664" height="604" viewBox="0 0 664 604">
  <defs>
    <clipPath id="clip-photography">
      <rect width="664" height="604"/>
    </clipPath>
  </defs>
  <g id="photography" clip-path="url(#clip-photography)">
    <g id="Group_1915" data-name="Group 1915" transform="translate(-313.387 -161)">
      <g id="Group_1912" data-name="Group 1912" transform="translate(522.957 251.133)">
        <path id="Path_2551" data-name="Path 2551" d="M103.5,533.041c0,9.965,84.426,18.041,188.575,18.041,17.212,0,33.883-.222,49.726-.637,61.1-1.588,109.848-6.05,129.48-11.775,6.078-1.768,9.369-3.662,9.369-5.629,0-2.249-4.312-4.408-12.185-6.393-4.594-1.161-10.4-2.261-17.272-3.3-.054-.006-.114-.012-.174-.024-15.735-2.351-37.024-4.336-62.1-5.767-28.3-1.63-61.437-2.562-96.846-2.562C187.926,515,103.5,523.076,103.5,533.041Z" transform="translate(-103.5 -252.672)" fill="#f0f0f0"/>
        <ellipse id="Ellipse_232" data-name="Ellipse 232" cx="16.5" cy="15" rx="16.5" ry="15" transform="translate(138.429 -0.133)" fill="#9499f1"/>
        <path id="Path_2566" data-name="Path 2566" d="M435.615,206.386a247.179,247.179,0,0,0,6.173-43.646c.526-13.118-.531-24.064-3.142-32.535-3.3-10.7-9.1-17.484-17.24-20.155l-.374,1.143c17.637,5.786,20.369,31.2,19.556,51.5a245.871,245.871,0,0,1-6.138,43.4Z" transform="translate(-255.463 -91.247)" fill="#2f2e41"/>
        <path id="Path_2567" data-name="Path 2567" d="M572.143,461.675c8.3,10.9-1.213,32.136-1.213,32.136s-22.967,3.556-31.266-7.348,1.213-32.136,1.213-32.136S563.845,450.772,572.143,461.675Z" transform="translate(-458.292 -228.265)" fill="#3f3d56"/>
        <path id="Path_2568" data-name="Path 2568" d="M300.846,479.574c-6.871,8.021-24.389,4.262-24.389,4.262s-6.377-16.765.494-24.786,24.389-4.262,24.389-4.262S307.718,471.552,300.846,479.574Z" transform="translate(-29.136 -228.318)" fill="#3f3d56"/>
        <path id="Path_2569" data-name="Path 2569" d="M245.4,523.225c67.15-36.565,120.069-34.623,152.636-26.555,35.253,8.733,54.873,26.3,55.067,26.472l.807-.89c-.2-.179-20.041-17.944-55.586-26.749a177.542,177.542,0,0,0-65.748-3.339c-28.436,3.689-57.959,13.784-87.75,30.005Z" transform="translate(-161.636 -242.928)" fill="#2f2e41"/>
        <rect id="Rectangle_660" data-name="Rectangle 660" width="1.201" height="75.506" transform="translate(187.074 172.724)" fill="#2f2e41"/>
        <ellipse id="Ellipse_233" data-name="Ellipse 233" cx="43.5" cy="45" rx="43.5" ry="45" transform="translate(144.429 149.867)" fill="#3f3d56"/>
        <ellipse id="Ellipse_234" data-name="Ellipse 234" cx="33.5" cy="33" rx="33.5" ry="33" transform="translate(154.429 89.867)" fill="#3f3d56"/>
        <ellipse id="Ellipse_235" data-name="Ellipse 235" cx="25.5" cy="24.5" rx="25.5" ry="24.5" transform="translate(164.429 43.867)" fill="#3f3d56"/>
      </g>
      <g id="Group_1914" data-name="Group 1914" transform="translate(366.387 216.564)">
        <path id="Path_2572" data-name="Path 2572" d="M587,34.558,234.533,44.837l-.153-10.912Z" transform="translate(-44.557 -33.925)" opacity="0.2"/>
        <rect id="Rectangle_661" data-name="Rectangle 661" width="19.426" height="3.95" rx="1.479" transform="translate(352.984 35.752)" fill="#e6e8ec"/>
        <ellipse id="Ellipse_237" data-name="Ellipse 237" cx="2.237" cy="2.24" rx="2.237" ry="2.24" transform="translate(345.571 35.487)" fill="#e6e8ec"/>
        <path id="Path_2582" data-name="Path 2582" d="M912.577,177.9l-52.033.324s-85.645,45.631-25.532,140.13c0,0,24.563-5.825,51.71,14.24C886.722,332.595,902.558,181.461,912.577,177.9Z" transform="translate(-722.188 -167.608)" fill="#9499f1"/>
        <path id="Path_2583" data-name="Path 2583" d="M884.361,178.445c-9.322,38.993-19.86,139.561-19.86,139.561-24.255-17.927-46.43-15.189-50.884-14.4a172.726,172.726,0,0,0,8.658,15.2s24.562-5.825,51.71,14.24c0,0,15.836-151.134,25.855-154.694Z" transform="translate(-709.45 -167.68)" opacity="0.2"/>
        <path id="Path_2584" data-name="Path 2584" d="M809.983,101.68l-4.525,22.007L748.6,113.338l-.019-.007-1.293-25.89h10.988Z" transform="translate(-697.479 -42.521)" fill="#3f3d56"/>
        <path id="Path_2585" data-name="Path 2585" d="M820.138,87.441l-8.759,25.9-.019-.007-1.292-25.89Z" transform="translate(-760.259 -42.521)" opacity="0.2"/>
        <ellipse id="Ellipse_239" data-name="Ellipse 239" cx="6.464" cy="14.887" rx="6.464" ry="14.887" transform="translate(104.099 53.982)" fill="#3f3d56"/>
        <path id="Path_2586" data-name="Path 2586" d="M948.564,561.909a1.977,1.977,0,0,0,1.976-1.978V247.307a1.976,1.976,0,1,0-3.951,0V559.931a1.977,1.977,0,0,0,1.976,1.978Z" transform="translate(-871.612 -178.438)" fill="#3f3d56"/>
        <path id="Path_2587" data-name="Path 2587" d="M890.117,660.607a1.977,1.977,0,0,0,1.942-2.357l-25.22-129.47,66.229,101.16a1.977,1.977,0,1,0,3.3-2.17L864.624,518.182a1.976,1.976,0,0,0-3.592,1.464L888.18,659.007A1.978,1.978,0,0,0,890.117,660.607Z" transform="translate(-786.017 -222.119)" fill="#3f3d56"/>
        <path id="Path_2588" data-name="Path 2588" d="M948.557,636.048a1.972,1.972,0,0,0,1.654-.894l74.98-114.564a1.976,1.976,0,1,0-3.3-2.168l-74.98,114.564a1.979,1.979,0,0,0,1.651,3.063Z" transform="translate(-946.583 -222.157)" fill="#3f3d56"/>
        <g id="Group_1913" data-name="Group 1913" transform="translate(410.637 172.856)">
          <path id="Path_2589" data-name="Path 2589" d="M550.193,454.391l-14.156-3.947s-5.545-1.108-2.157-11.952,10.108-7.809,10.108-7.809l12.557,3.653,4.958,1.533-6.976,9.8-.585,6.532Z" transform="translate(-499.852 -394.302)" fill="#3f3d56"/>
          <path id="Path_2590" data-name="Path 2590" d="M379.13,292.737l4.441,17.765-22.756,22.084-1.956.491-5.219-1.468L349.2,313.845l4.5-4.738-4.6-1.206,9.813-9.54,5.121,1.076,4.107-4.084-2.772-1.11-.261-1.045,3.358-2.647Z" transform="translate(-301.437 -261.299)" fill="#3f3d56"/>
          <path id="Path_2591" data-name="Path 2591" d="M360.144,320.518l2.94,11.756,13.563-12.839-3.4-11.919Z" transform="translate(-303.771 -264.023)" fill="#9499f1"/>
          <path id="Path_2592" data-name="Path 2592" d="M383.685,292.737l.623,2.491-22.629,22.043-1.956.49-5.056-1.37-.278-.006-.635-2.541,4.5-4.738-4.6-1.206,9.813-9.54,5.121,1.076,4.107-4.084-2.772-1.11-.262-1.045,3.358-2.647Z" transform="translate(-305.991 -261.299)" fill="none" stroke="#3f3d56" stroke-miterlimit="10" stroke-width="1"/>
          <path id="Path_2603" data-name="Path 2603" d="M1.295,3.775c.706,0,1.279-.843,1.278-1.882S2,.01,1.294.01.015.853.015,1.892.588,3.775,1.295,3.775Z" transform="translate(65.717 32.928) rotate(-104.057)" fill="#9499f1"/>
          <path id="Path_2604" data-name="Path 2604" d="M1.295,3.775c.706,0,1.279-.843,1.278-1.882S2,.01,1.294.01.015.853.015,1.892.588,3.775,1.295,3.775Z" transform="translate(51.339 51.94) rotate(-104.057)" fill="#9499f1"/>
          <path id="Path_2593" data-name="Path 2593" d="M540.7,479.309l3.087-10.51s-8.026-19.166,1.235-21.02,9.879,17.929,9.879,17.929l-3.7,11.747Z" transform="translate(-499.763 -397.09)" fill="#ffb6b6"/>
          <ellipse id="Ellipse_242" data-name="Ellipse 242" cx="24.525" cy="24.558" rx="24.525" ry="24.558" transform="translate(73.722 12.667)" fill="#ffb6b6"/>
          <path id="Path_2594" data-name="Path 2594" d="M463.41,451.586s-1.443,18.058-5.049,19.5,38.952,11.557,38.952,11.557l-10.82-12.279s-2.164-18.78,2.885-23.114Z" transform="translate(-373.095 -397.025)" fill="#ffb6b6"/>
          <path id="Path_2595" data-name="Path 2595" d="M569.315,478.5l-9.879-1.237s-11.731,6.182-11.731,14.22-6.791,21.02-6.791,21.02-4.939,17.311,6.174,18.547S568.08,512.5,568.08,512.5Z" transform="translate(-513.564 -401.846)" fill="#9499f1"/>
          <path id="Path_2596" data-name="Path 2596" d="M492.421,592.169s-21.609-20.4-27.783-19.165-18.522,3.091-18.522,12.365,20.374,30.912,20.374,30.912,15.435,34,30.253,35.24a255.431,255.431,0,0,1,29.018,4.328s-6.791,24.73-3.087,31.531,17.9,14.838,19.139,14.22,18.522-16.693,25.931-39.568,12.348-40.186,5.557-41.423S492.421,592.169,492.421,592.169Z" transform="translate(-442.227 -417.214)" fill="#2f2e41"/>
          <path id="Path_2597" data-name="Path 2597" d="M565.2,585.535s-4.322-.618-3.7,9.892,2.47,48.223,5.557,55.642,3.7,16.074,2.469,19.166-3.7,8.037.618,8.655,22.226-1.855,24.079-2.473,3.7-11.128,2.47-11.128-4.322-.618-3.087-4.946,1.852-4.328,0-5.564-6.792-3.091-5.557-4.328,2.47-30.294,2.47-30.294Z" transform="translate(-559.462 -419.235)" fill="#2f2e41"/>
          <path id="Path_2598" data-name="Path 2598" d="M576.681,693.952s-10.5-3.091-11.731,3.71c0,0-1.852,10.51,6.174,14.219a99.155,99.155,0,0,1,14.818,8.656s12.966,4.946,13.583-1.237-2.47-28.439-2.47-28.439Z" transform="translate(-564.766 -436.152)" fill="#2f2e41"/>
          <path id="Path_2599" data-name="Path 2599" d="M481.369,700.306l19.757-16.074s-3.7,19.784,1.235,23.493l2.256,6.605-6.318,5.175S478.9,716.38,481.369,700.306Z" transform="translate(-399.684 -435.087)" fill="#2f2e41"/>
          <path id="Path_2600" data-name="Path 2600" d="M459.831,670.948s-12.965,3.709-11.113,16.693,4.227,27.088,4.227,27.088.712,34.736,9.973,37.209,11.731-2.473,11.731-2.473,10.527-27.144,7.409-35.24c-3.775-9.8-9.214-20.8-7.409-24.111C476.425,686.859,473.414,669.094,459.831,670.948Z" transform="translate(-350.366 -432.932)" fill="#2f2e41"/>
          <path id="Path_2601" data-name="Path 2601" d="M508.789,467.3s-4.939.618-12.966,1.855-13.583-4.946-17.9-3.71-40.131,9.892-40.131,9.892L443.345,518s-6.792,49.46-5.557,58.115-14.818,7.419-5.557,17.929,25.314,19.784,58.036,16.693,37.044-2.473,37.044-7.419-7.409-46.986-4.939-50.7,7.409-8.037,4.939-12.365-4.939-6.8-1.235-10.51,5.557-7.419,5.557-9.274,8.644-32.149,8.644-32.149-3.7-14.838-8.026-15.456-8.026-3.709-11.113-3.709-4.939.618-6.791,0Z" transform="translate(-391.914 -399.922)" fill="#9499f1"/>
          <path id="Path_2602" data-name="Path 2602" d="M458.155,416.186c.318-1.429,1.873-6.206,5.034-7.372,2.313-.853,6.616.949,8.76.65l.276-.786a17.851,17.851,0,0,1,1.146-4.513,23.079,23.079,0,0,1,12.653-12.916c7.06-2.955,18.226-5.4,27.914,2.345,13.307,10.636,10.962,26.552,10,30.967q-.242,1.1-.414,2.224c-.6,3.89-2.315,4.354-2.315,4.354s.037-.112.1-.316l-12.019,1.172-6.5-1.11c-.109.636-.151,1.012-.151,1.012-18.963-2.9-30-12.9-31.789-14.638a19.173,19.173,0,0,1-7.354,3.128C459.322,420.934,457.837,417.615,458.155,416.186Zm48.859,9.561,15.27-.556c.217-4.174-.86-9.054-7-9.3-5.918-.24-9.148,4.578-10.86,8.989Z" transform="translate(-400.485 -387.575)" fill="#2f2e41"/>
          <path id="Path_2605" data-name="Path 2605" d="M2.707,2.062c1.492,0,2.7-.458,2.7-1.023S4.2.016,2.707.015.006.473.006,1.038,1.215,2.062,2.707,2.062Z" transform="matrix(-0.986, -0.168, 0.168, -0.986, 105.203, 2.959)" fill="#2f2e41"/>
        </g>
      </g>
    </g>
  </g>
</svg>
