<svg xmlns="http://www.w3.org/2000/svg" xmlns:xlink="http://www.w3.org/1999/xlink" width="715" height="483" viewBox="0 0 715 483">
  <defs>
    <linearGradient id="linear-gradient" x1="0.5" y1="1" x2="0.5" gradientUnits="objectBoundingBox">
      <stop offset="0" stop-color="gray" stop-opacity="0.251"/>
      <stop offset="0.535" stop-color="gray" stop-opacity="0.122"/>
      <stop offset="1" stop-color="gray" stop-opacity="0.102"/>
    </linearGradient>
    <linearGradient id="linear-gradient-2" x1="0.5" y1="1" x2="0.5" y2="0" xlink:href="#linear-gradient"/>
    <clipPath id="clip-robotics-club">
      <rect width="715" height="483"/>
    </clipPath>
  </defs>
  <g id="robotics-club" clip-path="url(#clip-robotics-club)">
    <g id="undraw_Firmware_jw6u" transform="translate(59 25)">
      <path id="Path_2040" data-name="Path 2040" d="M608.045,311.754c-19.994,26.973-12.226,66.377.479,97.935,4.254,10.566,9.065,21.745,7.27,33.075-2.195,13.856-13.849,23.987-26.085,29.357a73.742,73.742,0,0,1-69.492-6.074c-17.712-11.692-30.4-30.705-48.41-41.865-30.147-18.676-68.519-11.623-101.254,1.241-23.159,9.1-48.479,20.937-71.492,11.426-16.193-6.693-27.386-22.983-33.484-40.25-2.945-8.337-5.082-17.361-10.7-23.969-3.343-3.928-7.705-6.717-12.174-9.068-40.806-21.47-92.347-9.973-131.983-33.785C83.946,313.7,66.808,283.36,59.22,251.727s-6.7-64.8-4.778-97.381c1.369-23.152,3.826-47.868,17.766-65.736,14.748-18.9,40.058-25.931,62.934-22.338s43.613,16.4,61.856,31.48c22.8,18.849,43.944,42.321,71.936,49.957,19.063,5.2,39.116,2.356,58.778,1.371,32.869-1.647,65.751,2.015,98.439,6.025,31.293,3.839,62.812,8.063,92.622,18.865,21.1,7.644,38.01,21.52,57.93,31.214,12.985,6.319,27.145,8.064,39.439,16.112,15.145,9.914,29.029,27.158,25.148,47.337C637.6,287.816,618.657,297.438,608.045,311.754Z" transform="translate(-44.907 -65.366)" fill="#7085bf" opacity="0.1"/>
      <path id="Path_2041" data-name="Path 2041" d="M693.974,210.89s-32.139-10.1-34.262,18.628,8.494,76.045,0,91.254-38.8,37.183-22.852,39.152S660.774,364.71,656,374.85s-29.728,19.715-24.419,27.038,7.963,16.336,2.654,25.349-23.889,14.646-20.7,20.842,14.864,9.576,9.025,16.336-22.767,22.135-16.161,22.052" transform="translate(-303.77 -128.165)" fill="none" stroke="#535461" stroke-miterlimit="10" stroke-width="3"/>
      <rect id="Rectangle_634" data-name="Rectangle 634" width="81.546" height="40.13" rx="12.97" transform="translate(362.492 63.586)" fill="#9499f1"/>
      <rect id="Rectangle_635" data-name="Rectangle 635" width="68.546" height="0.752" transform="translate(368.992 97.557)" opacity="0.1"/>
      <rect id="Rectangle_636" data-name="Rectangle 636" width="68.546" height="27.589" transform="translate(368.992 69.856)" opacity="0.3"/>
      <ellipse id="Ellipse_166" data-name="Ellipse 166" cx="9.455" cy="10.032" rx="9.455" ry="10.032" transform="translate(375.492 74.194)" opacity="0.1"/>
      <ellipse id="Ellipse_167" data-name="Ellipse 167" cx="9.455" cy="10.032" rx="9.455" ry="10.032" transform="translate(412.129 74.194)" opacity="0.1"/>
      <rect id="Rectangle_637" data-name="Rectangle 637" width="14.181" height="8.781" transform="translate(396.174 103.714)" fill="#9499f1"/>
      <rect id="Rectangle_638" data-name="Rectangle 638" width="59.091" height="50.162" transform="translate(373.72 109.986)" fill="#9499f1"/>
      <rect id="Rectangle_639" data-name="Rectangle 639" width="61.455" height="6.27" transform="translate(372.537 170.18)" fill="#9499f1"/>
      <path id="Path_2042" data-name="Path 2042" d="M720.689,333.154V362h10.636V324.376H720.689Z" transform="translate(-338.106 -141.655)" fill="#9499f1"/>
      <path id="Path_2043" data-name="Path 2043" d="M780.8,324.376V362h10.636V324.376Z" transform="translate(-366.305 -141.655)" fill="#9499f1"/>
      <path id="Path_2044" data-name="Path 2044" d="M703.243,280.656v11.6a15.629,15.629,0,0,0-7.857,4.019,19.811,19.811,0,0,0-4.678,7.277,38.9,38.9,0,0,0-2.3,11.11,67.352,67.352,0,0,0,.654,14.9H677.241a90.8,90.8,0,0,1,.309-17.987,50,50,0,0,1,3.793-14.256c3.424-7.62,8.294-11.754,12.572-14A22.188,22.188,0,0,1,703.243,280.656Z" transform="translate(-337.572 -159.383)" fill="#9499f1"/>
      <rect id="Rectangle_640" data-name="Rectangle 640" width="10.636" height="8.778" transform="translate(382.583 182.721)" opacity="0.3"/>
      <rect id="Rectangle_641" data-name="Rectangle 641" width="10.636" height="11.286" transform="translate(382.583 199.023)" opacity="0.3"/>
      <rect id="Rectangle_642" data-name="Rectangle 642" width="10.636" height="3.762" transform="translate(382.583 216.58)" opacity="0.3"/>
      <rect id="Rectangle_643" data-name="Rectangle 643" width="10.636" height="8.778" transform="translate(414.493 182.721)" opacity="0.3"/>
      <rect id="Rectangle_644" data-name="Rectangle 644" width="10.636" height="11.286" transform="translate(414.493 199.023)" opacity="0.3"/>
      <rect id="Rectangle_645" data-name="Rectangle 645" width="10.636" height="3.762" transform="translate(414.493 216.58)" opacity="0.3"/>
      <path id="Path_2045" data-name="Path 2045" d="M718.249,280.656v11.6a15.629,15.629,0,0,0-7.857,4.019l-1.471-12.952A22.187,22.187,0,0,1,718.249,280.656Z" transform="translate(-352.578 -159.383)" opacity="0.3"/>
      <path id="Path_2046" data-name="Path 2046" d="M691.251,316.471a38.907,38.907,0,0,0-2.3,11.11L678.093,324.5a50,50,0,0,1,3.793-14.256Z" transform="translate(-338.115 -172.303)" opacity="0.3"/>
      <path id="Path_2047" data-name="Path 2047" d="M868.128,280.656v11.6a15.629,15.629,0,0,1,7.857,4.019,19.812,19.812,0,0,1,4.677,7.278,38.9,38.9,0,0,1,2.3,11.11,67.355,67.355,0,0,1-.654,14.9H894.13a90.8,90.8,0,0,0-.309-17.987,50,50,0,0,0-3.793-14.256c-3.424-7.62-8.294-11.754-12.572-14A22.188,22.188,0,0,0,868.128,280.656Z" transform="translate(-427.268 -159.383)" fill="#9499f1"/>
      <path id="Path_2048" data-name="Path 2048" d="M868.128,280.656v11.6a15.629,15.629,0,0,1,7.857,4.019l1.47-12.952A22.188,22.188,0,0,0,868.128,280.656Z" transform="translate(-427.268 -159.383)" opacity="0.3"/>
      <path id="Path_2049" data-name="Path 2049" d="M891.74,316.471a38.909,38.909,0,0,1,2.3,11.11L904.9,324.5a50,50,0,0,0-3.793-14.256Z" transform="translate(-438.346 -172.303)" opacity="0.3"/>
      <rect id="Rectangle_646" data-name="Rectangle 646" width="14.181" height="1.039" transform="translate(396.174 103.714)" opacity="0.1"/>
      <path id="Path_2050" data-name="Path 2050" d="M853.973,276.485v21a4.526,4.526,0,0,1-1.1-2.977V279.459a4.519,4.519,0,0,1,1.1-2.974Z" transform="translate(-420.112 -157.562)" opacity="0.1"/>
      <path id="Path_2051" data-name="Path 2051" d="M741.076,276.881V292.6a4.5,4.5,0,0,1-1.1,2.66V274.221a4.5,4.5,0,0,1,1.1,2.66Z" transform="translate(-367.146 -156.573)" opacity="0.1"/>
      <rect id="Rectangle_647" data-name="Rectangle 647" width="53.181" height="0.743" transform="translate(376.675 160.149)" opacity="0.1"/>
      <rect id="Rectangle_648" data-name="Rectangle 648" width="25.999" height="0.576" transform="translate(375.492 176.452)" opacity="0.1"/>
      <rect id="Rectangle_649" data-name="Rectangle 649" width="25.999" height="0.576" transform="translate(403.857 176.452)" opacity="0.1"/>
      <rect id="Rectangle_650" data-name="Rectangle 650" width="4.07" height="37.137" transform="translate(378.392 26.448)" fill="#9499f1"/>
      <rect id="Rectangle_651" data-name="Rectangle 651" width="4.07" height="37.137" transform="translate(425.057 26.448)" fill="#9499f1"/>
      <ellipse id="Ellipse_168" data-name="Ellipse 168" cx="4.612" cy="4.894" rx="4.612" ry="4.894" transform="translate(375.68 21.842)" opacity="0.1"/>
      <ellipse id="Ellipse_169" data-name="Ellipse 169" cx="4.612" cy="4.894" rx="4.612" ry="4.894" transform="translate(375.68 21.554)" fill="#9499f1"/>
      <ellipse id="Ellipse_170" data-name="Ellipse 170" cx="4.612" cy="4.894" rx="4.612" ry="4.894" transform="translate(422.615 21.842)" opacity="0.1"/>
      <ellipse id="Ellipse_171" data-name="Ellipse 171" cx="4.612" cy="4.894" rx="4.612" ry="4.894" transform="translate(422.615 21.554)" fill="#9499f1"/>
      <path id="Path_2052" data-name="Path 2052" d="M630.772,489.512c-1.814,1.928-2.228,4.575-2.873,7.03a34.682,34.682,0,0,1-12.214,18.224c-4.424,3.479-10.355,7.33-9.306,12.52.251,1.24.913,2.4,1.087,3.648.753,5.413-7.046,8.266-10.065,13-2.249,3.529-1.648,7.9-.98,11.92.818,4.92,1.808,10.169,5.611,13.791a16.462,16.462,0,0,1,2.966,3c1.6,2.641.21,6.1,1.668,8.81,1.945,3.611,8.07,3.768,11.625,1.333s5.2-6.438,6.773-10.191c4.258-10.144,9.492-20.32,18.341-27.707,8.484-7.082,20.826-12.576,22.282-22.885.624-4.42-.957-9.264,1.458-13.158,1.141-1.84,3.049-3.2,4.341-4.962,3.849-5.239.983-12.817-4.653-16.537C658.324,481.738,638.174,481.647,630.772,489.512Z" transform="translate(-299.514 -247.899)" fill="#dee3f3" opacity="0.5"/>
      <path id="Path_2097" data-name="Path 2097" d="M.083.683,39.58,0,39.5,5.044,0,5.727Z" transform="translate(442.634 65.093) rotate(-17.351)" fill="#9499f1"/>
      <path id="Path_2053" data-name="Path 2053" d="M902.763,477.7s-20.557-4.363-26.039-10.179-30.15-16-32.891-8.725-37,31.992-13.7,36.355,54.818,5.817,61.67,2.908S902.763,477.7,902.763,477.7Z" transform="translate(-405.654 -236.075)" fill="#a8a8a8"/>
      <path id="Path_2054" data-name="Path 2054" d="M830.133,508.942c23.3,4.363,54.818,5.817,61.67,2.908,5.218-2.215,8.844-12.857,10.278-17.809.434.1.685.152.685.152s-4.111,17.45-10.964,20.359-38.373,1.454-61.67-2.909c-6.725-1.259-8.648-4.217-7.924-7.959C822.784,506.126,825.127,508,830.133,508.942Z" transform="translate(-405.659 -252.569)" opacity="0.2"/>
      <path id="Path_2055" data-name="Path 2055" d="M974.478,148.15a6.408,6.408,0,0,0-1.7-2.5c-5.516-5.335-14.438-3.718-21.287-6.976-1.578-.751-3.2-1.792-4.909-1.507-2.392.4-4.616,3.288-6.7,2.006l.149.483c-.05-.026-.1-.052-.149-.082l1.534,4.958a18.54,18.54,0,0,0,2.355,5.447,14.749,14.749,0,0,0-4.467,12.8,14.2,14.2,0,0,0,7.717,10.921c.072.166.144.333.214.5.065.031.132.058.2.088a17.4,17.4,0,0,1,1.012,3.454c-1.775.26-4.87,2.343-7.914,5.419l-6.087-.221a19.168,19.168,0,0,1-10.937-3.945l-18.2-13.886a5.932,5.932,0,0,0-3.488,1.636c-2.26-2.5-4.179-5.11-4.015-6.639,0,0-8.465-16.811-11.543-8.406s5.771,17.212,5.771,17.212l5.614,7.717a34.367,34.367,0,0,0-.42,4.091c6.926,8.406,31.166,16.011,31.166,16.011l3.78.194c.008.074.014.136.021.2a14.449,14.449,0,0,0-.338,3.211c0,.155.005.318.007.481,0,.107-.009.214-.007.32.192,13.409,1.924,54.437,1.924,54.437.337-.159.685-.305,1.039-.442l-.27,3.645s-16.16,2.4-28.088,7.2-12.313,10.407-12.313,10.407v49.447c-3.408,1.855-8.783,4.294-11.543,2.989-3-1.416-4.64-.226-4.937,1.016h0a1.671,1.671,0,0,0-.013.747l0,.015a1.393,1.393,0,0,0,.115.317l.012.023a1.27,1.27,0,0,0,.2.283c1.154,1.2,26.164,11.608,31.936,10.007a3.835,3.835,0,0,0,.523-.187c.055-.025.1-.057.158-.084.107-.053.215-.105.314-.168.059-.037.113-.082.17-.123.086-.061.174-.121.255-.189.056-.048.107-.1.16-.153.074-.07.15-.139.219-.215.05-.055.1-.117.143-.176.065-.08.132-.158.193-.243.044-.061.083-.128.124-.191.058-.09.117-.179.171-.274.037-.065.07-.135.1-.2.052-.1.1-.2.151-.306.03-.068.057-.138.086-.208.046-.111.092-.222.133-.338.024-.068.046-.138.068-.208.04-.123.08-.246.115-.372.018-.066.035-.133.052-.2.035-.135.069-.271.1-.41.014-.062.025-.124.038-.186.03-.148.058-.3.083-.447.009-.056.017-.112.026-.168.024-.161.047-.323.066-.487.006-.047.01-.094.016-.141.019-.176.036-.352.05-.529,0-.037.005-.074.008-.111q.021-.285.033-.57c0-.026,0-.051,0-.076q.012-.306.016-.611v-.039a35.475,35.475,0,0,0-.743-7.1h0l1.4-42.126A204.086,204.086,0,0,0,936.8,283.5l.828,20.1s0,13.209,4.232,19.213c3.622,5.138,7.807,27.863,8.939,34.311-1.555,3.146-4.53,7.037-9.709,6.917,0,0-9.745-.894-9.2,1.95v0a1.522,1.522,0,0,0,.061.218l.006.019a2.1,2.1,0,0,0,.106.238l.009.016c.039.073.084.149.135.227l.031.048c.057.084.119.17.189.258l.018.021c.065.08.137.163.214.247l.065.07c.087.093.179.187.281.285,5,4.8,34.245,5.6,34.245,5.6v-.108c0-.03,0-.069,0-.112v-.016c-.017-1.389-.191-8.684-1.943-14.173h.405s-4.232-40.427-7.7-45.231c0,0-.92-21.317,1.157-34.677.127-.049.256-.1.382-.147,9.7-3.844,10.389-13.311,9.389-20.267,1.835.626,2.923,1.054,2.923,1.054s-.034-.3-.1-.838l.1.037s-.185-1.271-.49-3.255c-.694-5.454-2.039-14.986-3.47-19.486-.231-.989-.453-1.835-.658-2.476a44.547,44.547,0,0,1-1.694-8.315,104.476,104.476,0,0,1-.595-11.026,112.186,112.186,0,0,1,1.064-14.709,93.906,93.906,0,0,0,1.072-12.471,17.633,17.633,0,0,0-.231-3.514c-.514-2.495-2.781-4.117-5.139-5.149-.152-.066-.308-.121-.461-.183.057-.946.133-2.017.23-3.146a2.418,2.418,0,0,0,1.961.421,4.693,4.693,0,0,0,2.388-1.978c3.41-4.444,6.912-9.077,8.222-14.6a33.4,33.4,0,0,0,.721-7.517q0-.207,0-.415A8.646,8.646,0,0,0,974.478,148.15Z" transform="translate(-431.719 -96.7)" fill="url(#linear-gradient)"/>
      <path id="Path_2056" data-name="Path 2056" d="M1001.59,190.561s5.167,8.223,4.059,12.139,12.178,1.566,12.178,1.566.369-15.272,2.952-18.8S1001.59,190.561,1001.59,190.561Z" transform="translate(-489.881 -117.446)" fill="#f7c4a7"/>
      <path id="Path_2057" data-name="Path 2057" d="M917.823,186.37s-10.7-9.4-10.333-12.923c0,0-8.119-16.447-11.071-8.223s5.536,16.839,5.536,16.839l10.333,14.489Z" transform="translate(-440.248 -107.969)" fill="#f7c4a7"/>
      <path id="Path_2058" data-name="Path 2058" d="M900.161,466.285s-9.964,6.657-14.024,4.7-5.536,1.175-4.428,2.35,25.095,11.356,30.63,9.79,2.72-14.394,2.72-14.394Z" transform="translate(-433.473 -240.448)" fill="#535461"/>
      <path id="Path_2059" data-name="Path 2059" d="M998.917,515.819s-2.4,10.769-10.7,10.573c0,0-12.547-1.175-7.75,3.524s32.845,5.482,32.845,5.482,0-16.055-5.167-19.58A7.544,7.544,0,0,0,998.917,515.819Z" transform="translate(-479.458 -261.395)" fill="#535461"/>
      <path id="Path_2060" data-name="Path 2060" d="M987.691,377.918l1.107,27.412s0,12.923,4.059,18.8,8.857,35.244,8.857,35.244h14.024s-4.06-39.551-7.381-44.25c0,0-1.476-34.852,3.69-42.684Z" transform="translate(-483.361 -199.464)" fill="#575988"/>
      <path id="Path_2061" data-name="Path 2061" d="M987.691,377.918l1.107,27.412s0,12.923,4.059,18.8,8.857,35.244,8.857,35.244h14.024s-4.06-39.551-7.381-44.25c0,0-1.476-34.852,3.69-42.684Z" transform="translate(-483.361 -199.464)" opacity="0.1"/>
      <path id="Path_2062" data-name="Path 2062" d="M980.97,336.853s8.488,21.538-7.012,27.8-43.547,5.482-43.547,5.482l-1.476,45.425s-17.345,2.35-17.714-3.524V362.307s.369-5.482,11.809-10.181,26.94-7.049,26.94-7.049l.738-10.181Z" transform="translate(-447.485 -183.07)" fill="#575988"/>
      <path id="Path_2063" data-name="Path 2063" d="M999.329,212.327a16.735,16.735,0,0,1,8.671,1.3c2.262,1.01,4.436,2.6,4.929,5.037.584,2.89-.063,9.372-.806,14.855a108.51,108.51,0,0,0-.45,25.96c.381,3.6.905,6.734,1.625,8.134,2.214,4.308,4.428,24.67,4.428,24.67s-24.357-9.79-36.535-3.916c0,0-1.661-40.138-1.845-53.257-.143-10.158,11.994-21.734,16.053-22.125C997.779,212.757,996.967,212.587,999.329,212.327Z" transform="translate(-479.445 -129.495)" opacity="0.1"/>
      <path id="Path_2064" data-name="Path 2064" d="M999.329,210.937a16.735,16.735,0,0,1,8.671,1.3c2.262,1.01,4.436,2.6,4.929,5.037.584,2.89-.063,9.372-.806,14.855a108.51,108.51,0,0,0-.45,25.96,44.335,44.335,0,0,0,1.625,8.134c1.661,5.287,4.428,24.671,4.428,24.671s-24.357-9.79-36.535-3.916c0,0-1.661-40.139-1.845-53.257-.143-10.158,11.994-21.734,16.053-22.125C997.779,211.367,996.967,211.2,999.329,210.937Z" transform="translate(-479.445 -128.888)" fill="#e16969"/>
      <path id="Path_2065" data-name="Path 2065" d="M1005.921,237.714l-26.2-1.566s-1.668-13.631,2.115-13.491l25.932.96S1013.3,230.665,1005.921,237.714Z" transform="translate(-479.449 -134.055)" opacity="0.1"/>
      <path id="Path_2066" data-name="Path 2066" d="M976.566,222.8l-29.892-1.567s-23.25-7.44-29.892-15.664c0,0,.369-14.489,7.75-15.272l17.458,13.585a18.163,18.163,0,0,0,10.49,3.86l25.932.96S983.951,215.752,976.566,222.8Z" transform="translate(-450.094 -119.924)" fill="#e16969"/>
      <path id="Path_2067" data-name="Path 2067" d="M1017.643,192.626c.439-3.713,2.025-4.945,3.137-6.461,2.583-3.524-19.19,5.091-19.19,5.091a42.436,42.436,0,0,1,2.943,5.762,12.592,12.592,0,0,0,5.545,1.287C1013.29,198.3,1015.35,194.638,1017.643,192.626Z" transform="translate(-489.881 -117.749)" opacity="0.1"/>
      <ellipse id="Ellipse_172" data-name="Ellipse 172" cx="13.286" cy="14.097" rx="13.286" ry="14.097" transform="translate(506.914 51.969)" fill="#f7c4a7"/>
      <path id="Path_2068" data-name="Path 2068" d="M998.061,155.183a16,16,0,0,1-2.737-5.943l-1.471-4.851c2,1.254,4.134-1.573,6.428-1.963,1.643-.279,3.2.74,4.709,1.474,6.569,3.188,15.127,1.606,20.417,6.825a6.275,6.275,0,0,1,1.632,2.447,8.669,8.669,0,0,1,.3,2.76,33.3,33.3,0,0,1-.692,7.354c-1.256,5.4-4.615,9.933-7.886,14.281a4.522,4.522,0,0,1-2.291,1.935c-1.9.45-3.368-1.728-4.1-3.64a40.547,40.547,0,0,1-2.141-7.859,10.789,10.789,0,0,0-.877-3.322c-1.144-2.151-3.962-4.187-5.676-5.853C1001.984,157.192,999.633,157.007,998.061,155.183Z" transform="translate(-486.251 -98.998)" opacity="0.1"/>
      <path id="Path_2069" data-name="Path 2069" d="M998.061,154.488a16,16,0,0,1-2.737-5.943l-1.471-4.851c2,1.254,4.134-1.573,6.428-1.963,1.643-.279,3.2.74,4.709,1.474,6.569,3.188,15.127,1.606,20.417,6.825a6.275,6.275,0,0,1,1.632,2.447,8.669,8.669,0,0,1,.3,2.76,33.3,33.3,0,0,1-.692,7.354c-1.256,5.4-4.615,9.933-7.886,14.281a4.522,4.522,0,0,1-2.291,1.935c-1.9.45-3.368-1.728-4.1-3.64a40.546,40.546,0,0,1-2.141-7.859,10.788,10.788,0,0,0-.877-3.322c-1.144-2.151-3.962-4.187-5.676-5.853C1001.984,156.5,999.633,156.312,998.061,154.488Z" transform="translate(-486.251 -98.694)" fill="#632652"/>
      <ellipse id="Ellipse_173" data-name="Ellipse 173" cx="1.107" cy="2.545" rx="1.107" ry="2.545" transform="translate(522.598 65.087)" fill="#f7c4a7"/>
      <path id="Path_2070" data-name="Path 2070" d="M1020.067,306.045s-.738,2.35-4.428,1.958-14.393-1.175-14.393,0" transform="translate(-489.719 -170.471)" opacity="0.1"/>
      <path id="Path_2071" data-name="Path 2071" d="M980.47,540.1a3.325,3.325,0,0,1-1.074-1.634c-.1.509.2,1.169,1.074,2.026,4.8,4.7,32.845,5.482,32.845,5.482s0-.139,0-.392C1013.131,545.575,985.252,544.782,980.47,540.1Z" transform="translate(-479.461 -271.968)" fill="#fff" opacity="0.5"/>
      <path id="Path_2072" data-name="Path 2072" d="M912.336,486.754c-5.536,1.566-29.523-8.615-30.631-9.79a1.293,1.293,0,0,1-.307-.572,1.47,1.47,0,0,0,.307,1.356c1.107,1.175,25.095,11.356,30.631,9.79,2.849-.806,3.484-4.595,3.431-8.083C915.713,482.706,914.973,486.008,912.336,486.754Z" transform="translate(-433.469 -244.861)" fill="#fff" opacity="0.5"/>
      <path id="Path_2073" data-name="Path 2073" d="M366.7,439.289a177.983,177.983,0,0,1-2.376-23.123h0c-.52-13.091-8.746-24.418-20.543-28.288-2.1-.684-4.408-1.324-6.958-1.9-22.364-5.04-29.158-.64-29.93-.061A31.358,31.358,0,0,1,305.2,382c-.038-.137-.073-.277-.11-.415a31.282,31.282,0,0,0,7.65-18.3,20.612,20.612,0,0,0,5.91-14.07,20.026,20.026,0,0,0-4.438-12.336v-7.076c0-17.019-13-30.815-29.041-30.815h-2.355c-16.039,0-29.041,13.8-29.041,30.815v7.638a19.856,19.856,0,0,0-4.015,11.774,20.519,20.519,0,0,0,5.678,13.815,31.269,31.269,0,0,0,7.97,18.9c.157,1.157.318,2.4.477,3.716l-40.012,8.979s-15.426.673-25.358,22.423c-8.408,18.413-25.145,65.751-30.083,79.844h0c-.895,2.554-1.4,4.018-1.4,4.018s.164-.176.478-.476c-.311.891-.478,1.373-.478,1.373s.243-.26.7-.689c-.7,5.9-.8,16.021,6.48,17.282,6.1,1.057,21.825,1.491,33.705,1.67v.012h.824c7.873.112,13.863.112,13.863.112v-.112H350.35v-1.389a9.834,9.834,0,0,0-.7-3.672q.092-.113.178-.227a7.678,7.678,0,0,1,1.325,3.261,3.413,3.413,0,0,1-.06.344l.075-.208a3.7,3.7,0,0,1-.075,1.1s16.389-44.809,16.214-71.564a48.037,48.037,0,0,0-.6-8.431ZM264.545,391.684a32.923,32.923,0,0,1-.406-3.864v-.036C264.281,389.042,264.418,390.347,264.545,391.684ZM214.9,487.93v10.68l-6.309,1.43Z" transform="translate(-98.355 -167.385)" fill="url(#linear-gradient-2)"/>
      <path id="Path_2074" data-name="Path 2074" d="M322.8,241.263h0c16.039,0,29.041,13.8,29.04,30.816v13.145H293.76V272.079c0-17.02,13-30.816,29.041-30.816Z" transform="translate(-137.815 -105.36)" fill="#e14b5a"/>
      <ellipse id="Ellipse_174" data-name="Ellipse 174" cx="33.102" cy="24.135" rx="33.102" ry="24.135" transform="translate(152.086 160.039)" fill="#e14b5a"/>
      <path id="Path_2075" data-name="Path 2075" d="M345.566,427.982s6.9,38.358,0,48.7,21.121,14.438,21.121,14.438l29.041-11.205,4.062-27.583s-17.668-10.559-14.013-31.893Z" transform="translate(-181.599 -220.427)" fill="#f7c4a7"/>
      <path id="Path_2076" data-name="Path 2076" d="M483.2,654.508s1.828,8.4-8.123,9.913a53.078,53.078,0,0,1-17.707-.224l-2.195-21.11H478.33Z" transform="translate(-233.536 -317.657)" fill="#f7c4a7"/>
      <path id="Path_2077" data-name="Path 2077" d="M176.069,634.9s-4.395,18.946,5.556,20.67,46.506,1.724,46.506,1.724V634.879l-16.548,3.75-15.539-15.818Z" transform="translate(-102.141 -308.803)" fill="#f7c4a7"/>
      <path id="Path_2078" data-name="Path 2078" d="M267.9,454.378l-38.89,8.728s-14.825.646-24.37,21.549-30.26,80.594-30.26,80.594,17.668-18.963,38.382,1.293l13.81-26.506-3.046,42.021H330.553V562.232s22.339,12.714,20.714,19.825c0,0,19.116-52.263,15-76.016a171.058,171.058,0,0,1-2.284-22.222h0c-.5-12.58-8.405-23.466-19.742-27.186-2.015-.658-4.237-1.272-6.686-1.825-22.948-5.172-28.838,0-28.838,0s-4.445,15.348-4.366,22.3c.1,8.943-11.982,14.869-11.982,14.869s-17.871-4.525-18.684-8.189S266.481,458.688,267.9,454.378Z" transform="translate(-101.803 -234.432)" opacity="0.1"/>
      <path id="Path_2079" data-name="Path 2079" d="M267.9,452.848l-38.89,8.727s-14.825.647-24.37,21.549-30.259,80.595-30.259,80.595,17.668-18.963,38.382,1.293l13.81-26.506-3.046,42.021H330.553V560.7s22.339,12.714,20.714,19.825c0,0,19.116-52.263,15-76.016a171.059,171.059,0,0,1-2.284-22.222h0c-.5-12.58-8.405-23.466-19.742-27.186-2.015-.658-4.237-1.272-6.686-1.825-22.948-5.172-28.838,0-28.838,0s-4.445,15.348-4.366,22.3c.1,8.943-11.982,14.869-11.982,14.869s-17.871-4.525-18.684-8.189S266.481,457.158,267.9,452.848Z" transform="translate(-101.803 -233.764)" fill="#575988"/>
      <path id="Path_2080" data-name="Path 2080" d="M388.951,439.183a30.862,30.862,0,0,1-1.06-15.3l-40.21,7.542s.58,3.225,1.236,8.056a26.535,26.535,0,0,0,40.034-.3Z" transform="translate(-183.105 -221.931)" opacity="0.1"/>
      <path id="Path_2081" data-name="Path 2081" d="M389.529,389.3c.187,16.185-12.028,29.464-27.28,29.66S334.482,406.2,334.3,390.014q-.006-.356-.006-.711c0-11.2,6.01-21.418,15.487-26.338a27.4,27.4,0,0,1,2.548-1.157,26.311,26.311,0,0,1,14.226-1.4.014.014,0,0,0,.01,0c12.594,2.276,22.069,13.425,22.906,26.952Q389.529,388.324,389.529,389.3Z" transform="translate(-176.823 -194.031)" fill="#f7c4a7"/>
      <g id="Group_1899" data-name="Group 1899" transform="translate(157.468 167.04)" opacity="0.1">
        <path id="Path_2082" data-name="Path 2082" d="M352.288,364.414a.4.4,0,0,1,.039-.026,26.684,26.684,0,0,0-2.553,1.159c-9.477,4.921-15.485,15.14-15.483,26.335,0,.237,0,.474.008.711a5.849,5.849,0,0,0,2.478-.631c6.734-3.334,10.773-13.537,12.36-20.653C349.7,368.763,350.249,365.892,352.288,364.414Z" transform="translate(-334.291 -362.989)"/>
        <path id="Path_2083" data-name="Path 2083" d="M387.112,364.153a26.251,26.251,0,0,0-6.866-2.248,8.812,8.812,0,0,1,4.931,3.286,13.646,13.646,0,0,1,1.509,2.855,26.252,26.252,0,0,0-23.229.511c1.734,4.032,7.11,6.232,10.7,7.7q5.895,2.415,11.927,4.415-1.776-1.532-3.552-3.06l8.02,1.353a15.593,15.593,0,0,0-.56-5.016c1.527,1.314,3.574,1.754,5.241,2.87,3.125,2.09,4.425,6.124,6.129,9.6a6.164,6.164,0,0,0,1.791,2.431,29.349,29.349,0,0,0-16.039-24.7Z" transform="translate(-347.974 -361.905)"/>
      </g>
      <path id="Path_2084" data-name="Path 2084" d="M352.288,363.239a.407.407,0,0,1,.039-.026,26.685,26.685,0,0,0-2.553,1.159c-9.477,4.921-15.485,15.14-15.483,26.335,0,.237,0,.474.008.711a5.849,5.849,0,0,0,2.478-.631c6.734-3.334,10.773-13.537,12.36-20.653C349.7,367.588,350.249,364.717,352.288,363.239Z" transform="translate(-176.823 -195.436)" fill="#632652"/>
      <path id="Path_2085" data-name="Path 2085" d="M387.112,362.978a26.25,26.25,0,0,0-6.866-2.248,8.811,8.811,0,0,1,4.931,3.286,13.645,13.645,0,0,1,1.509,2.855,26.252,26.252,0,0,0-23.229.511c1.734,4.032,7.11,6.232,10.7,7.7q5.895,2.415,11.927,4.415-1.776-1.532-3.552-3.06l8.02,1.353a15.592,15.592,0,0,0-.56-5.016c1.527,1.314,3.574,1.754,5.241,2.87,3.125,2.09,4.425,6.124,6.129,9.6a6.164,6.164,0,0,0,1.791,2.431,29.349,29.349,0,0,0-16.039-24.7Z" transform="translate(-190.506 -194.352)" fill="#632652"/>
      <path id="Path_2086" data-name="Path 2086" d="M328.362,381.826s28.432-37.5,61.331,0l-2.843-8.4s-15.434-23.92-26.4-18.748-21.73,8.835-21.73,8.835Z" transform="translate(-174.041 -191.387)" opacity="0.1"/>
      <path id="Path_2087" data-name="Path 2087" d="M328.362,380.651s28.432-37.5,61.331,0l-2.843-8.4s-15.434-23.92-26.4-18.748-21.73,8.835-21.73,8.835Z" transform="translate(-174.041 -190.874)" fill="#e14b5a"/>
      <path id="Path_2088" data-name="Path 2088" d="M279.881,545.726s-6.092,17.239,2.437,32.755-7.514,21.98-7.514,21.98" transform="translate(-148.915 -275.14)" opacity="0.1"/>
      <path id="Path_2089" data-name="Path 2089" d="M467.772,518.182s10.56,14.223,3.655,26.937-6.5,43.314-6.5,43.314" transform="translate(-238.109 -263.111)" opacity="0.1"/>
      <path id="Path_2090" data-name="Path 2090" d="M220.494,600.1H337.875c5.384,0,9.748,4.631,9.748,10.344H210.746c0-5.713,4.364-10.344,9.748-10.344Z" transform="translate(-98.87 -262.064)" fill="#535461"/>
      <path id="Path_2091" data-name="Path 2091" d="M244.073,473.857H326.14c11.434,0,20.7,9.836,20.7,21.969V547.34H223.37V495.826C223.37,483.693,232.639,473.857,244.073,473.857Z" transform="translate(-104.792 -206.934)" fill="#535461"/>
      <ellipse id="Ellipse_175" data-name="Ellipse 175" cx="7.311" cy="7.758" rx="7.311" ry="7.758" transform="translate(172.903 299.139)" fill="#fff"/>
      <path id="Path_2092" data-name="Path 2092" d="M331.422,361.9s27.944-29.636,58.082-.54" transform="translate(-175.477 -189.039)" fill="none" stroke="#000" stroke-miterlimit="10" stroke-width="1" opacity="0.1"/>
      <rect id="Rectangle_653" data-name="Rectangle 653" width="2.807" height="16.876" transform="translate(218.281 170.97)" fill="#6a5c99"/>
      <path id="Path_2093" data-name="Path 2093" d="M404.137,322.9h0c5.339,0,9.667,4.593,9.667,10.258v.662c0,5.665-4.328,10.258-9.667,10.258h0Z" transform="translate(-189.598 -141.011)" fill="#ff7600"/>
      <rect id="Rectangle_654" data-name="Rectangle 654" width="4.366" height="23.163" rx="2.183" transform="translate(212.669 180.897)" fill="#6a5c99"/>
      <rect id="Rectangle_655" data-name="Rectangle 655" width="2.807" height="16.876" transform="translate(151.404 188.177) rotate(180)" fill="#6a5c99"/>
      <path id="Path_2094" data-name="Path 2094" d="M0,0H0C5.339,0,9.667,4.593,9.667,10.258v.662c0,5.665-4.328,10.258-9.667,10.258H0Z" transform="translate(155.146 203.398) rotate(180)" fill="#ff7600"/>
      <rect id="Rectangle_656" data-name="Rectangle 656" width="4.366" height="23.163" rx="2.183" transform="translate(157.017 204.39) rotate(180)" fill="#6a5c99"/>
      <path id="Path_2095" data-name="Path 2095" d="M386.243,321.856c-3.8-8.384-12.076-18.521-29.917-19.33V302.5l-.214.011H356.1l-6.32.319v.033c-17.723.866-25.961,10.963-29.749,19.321a45.677,45.677,0,0,0-3.918,18.095l2.182-.057,2.182-.053a41.408,41.408,0,0,1,3.554-16.121c4.812-10.486,13.664-16.063,26.311-16.578v0l5.59-.328v0c12.647.514,21.5,6.092,26.311,16.578a41.407,41.407,0,0,1,3.554,16.121l2.182.053,2.182.057A45.677,45.677,0,0,0,386.243,321.856Z" transform="translate(-168.295 -168.924)" fill="#ff7600"/>
      <rect id="Rectangle_657" data-name="Rectangle 657" width="297.693" height="84.811" transform="translate(19.968 348.515)" fill="#d6d6e3"/>
      <rect id="Rectangle_658" data-name="Rectangle 658" width="297.693" height="11.009" transform="translate(19.968 354.224)" opacity="0.1"/>
      <rect id="Rectangle_659" data-name="Rectangle 659" width="337.628" height="11.009" transform="translate(0 347.292)" fill="#d6d6e3"/>
      <path id="Path_2096" data-name="Path 2096" d="M473.166,633.295s12.741,24.785,44.592,18.026,16.457,62.526,16.457,62.526S529,746.9,532.671,746.708" transform="translate(-241.975 -313.381)" fill="none" stroke="#535461" stroke-miterlimit="10" stroke-width="3"/>
    </g>
  </g>
</svg>
